<svg xmlns="http://www.w3.org/2000/svg" viewBox="0 0 261 100"><rect width="100" height="100" fill="#fff" rx="28" ry="28"/><path fill="#18181b" d="M47.943 68.417c-1.865 0-3.495-.407-4.896-1.209q-2.088-1.224-3.229-3.521-1.147-2.31-1.146-5.52V41.208h7.271v15.667c0 1.708.427 3.036 1.291 3.979.86.948 2.052 1.417 3.584 1.417 1.026 0 1.927-.219 2.708-.667.792-.443 1.406-1.088 1.854-1.937q.666-1.289.667-3.146V41.208h7.271V68h-6.979l-.063-6.792h.708c-.781 2.292-1.911 4.073-3.395 5.334q-2.21 1.875-5.646 1.875m.354-30.563 3.667-7.625h6.875l-5.438 7.625Zm0 0"/><path fill="#fff" d="M136.458 68.396q-2.773 0-4.875-1.188c-1.39-.791-2.479-1.948-3.271-3.479-.781-1.526-1.166-3.385-1.166-5.583V41.208h6.312v15.959q-.001 2.773 1.396 4.312c.927 1.016 2.229 1.521 3.896 1.521q1.663.002 2.958-.708 1.291-.705 2.042-2.105.75-1.412.75-3.458V41.208h6.312V68h-6.062l-.042-6.688h.729q-1.172 3.547-3.437 5.313-2.251 1.772-5.542 1.771m25.394-8.813v-7.541h.875l9.917-10.834h7.437l-12.042 13.188h-1.291ZM156.102 68V31.625h6.312V68Zm17.062 0-8.937-12.188 4.25-4.437L180.706 68Zm20.495.562c-2.615 0-4.891-.572-6.834-1.729q-2.92-1.728-4.521-4.854c-1.057-2.083-1.583-4.51-1.583-7.292 0-2.76.526-5.187 1.583-7.27 1.068-2.094 2.573-3.73 4.521-4.896q2.913-1.75 6.834-1.75 3.936 0 6.833 1.75c1.927 1.166 3.427 2.802 4.5 4.896 1.068 2.083 1.604 4.51 1.604 7.27 0 2.782-.536 5.209-1.604 7.292q-1.61 3.126-4.5 4.854c-1.932 1.157-4.208 1.729-6.833 1.729m0-5.145q2.142 0 3.604-1.125 1.474-1.142 2.208-3.105.75-1.976.75-4.5 0-2.538-.75-4.5-.734-1.977-2.208-3.104c-.974-.76-2.177-1.146-3.604-1.146-1.417 0-2.62.386-3.605 1.146q-1.46 1.127-2.208 3.104c-.49 1.308-.729 2.808-.729 4.5 0 1.683.239 3.183.729 4.5q.749 1.963 2.208 3.105 1.454 1.125 3.605 1.125m23.347-31.792V68h-6.312V31.625ZM222.291 68V41.208h6.313V68Zm3.146-30.646q-1.546 0-2.625-1-1.062-1.017-1.062-2.479c0-.984.354-1.813 1.062-2.479.719-.677 1.594-1.021 2.625-1.021 1.026 0 1.901.344 2.625 1.021a3.25 3.25 0 0 1 1.083 2.479c0 .974-.364 1.802-1.083 2.479q-1.086 1-2.625 1m20.202 31.208c-2.615 0-4.891-.572-6.833-1.729q-2.92-1.728-4.521-4.854c-1.057-2.083-1.584-4.51-1.584-7.292 0-2.76.527-5.187 1.584-7.27 1.068-2.094 2.573-3.73 4.521-4.896q2.912-1.75 6.833-1.75 3.936 0 6.833 1.75c1.927 1.166 3.427 2.802 4.5 4.896 1.068 2.083 1.604 4.51 1.604 7.27 0 2.782-.536 5.209-1.604 7.292q-1.61 3.126-4.5 4.854c-1.932 1.157-4.208 1.729-6.833 1.729m0-5.145q2.142 0 3.604-1.125 1.476-1.142 2.208-3.105.75-1.976.75-4.5 0-2.538-.75-4.5-.732-1.977-2.208-3.104c-.974-.76-2.177-1.146-3.604-1.146-1.417 0-2.62.386-3.604 1.146q-1.46 1.127-2.209 3.104c-.489 1.308-.729 2.808-.729 4.5 0 1.683.24 3.183.729 4.5q.749 1.963 2.209 3.105 1.455 1.125 3.604 1.125m0 0"/></svg>